# AST/ASF file generated using VICON BodyLanguage
# -----------------------------------------------
:version 1.10
:name VICON
:units
  mass 1.0
  length 0.45
  angle deg
:documentation
   .ast/.asf automatically generated from VICON data using
   VICON BodyBuilder and BodyLanguage model FoxedUp or BRILLIANT.MOD
:root
   order TX TY TZ RX RY RZ
   axis XYZ
   position 0 0 0  
   orientation 0 0 0 
:bonedata
  begin
     id 1 
     name lhipjoint
     direction 0.570549 -0.739093 0.358072 
     length 2.41801 
     axis 0 0 0  XYZ
  end
  begin
     id 2 
     name lfemur
     direction 0.34202 -0.939693 0  
     length 7.44434  
     axis 0 0 20  XYZ
    dof rx ry rz
    limits (-160.0 20.0)
           (-70.0 70.0)
           (-60.0 70.0)
  end
  begin
     id 3 
     name ltibia
     direction 0.34202 -0.939693 0   
     length 7.60047   
     axis 0 0 20   XYZ
    dof rx
    limits (-10.0 170.0)
  end
  begin
     id 4 
     name lfoot
     direction 0.0909041 -0.249757 0.964032   
     length 2.03437   
     axis -90 7.62852e-016 20   XYZ
    dof rx rz
    limits (-45.0 90.0)
           (-70.0 20.0)
  end
  begin
     id 5 
     name ltoes
     direction 1.53547e-011 -4.2174e-011 1   
     length 1.02054   
     axis -90 7.62852e-016 20   XYZ
    dof rx
    limits (-90.0 20.0)
  end
  begin
     id 6 
     name rhipjoint
     direction -0.558096 -0.746754 0.361784   
     length 2.3932  
     axis 0 0 0  XYZ 
  end
  begin
     id 7 
     name rfemur
     direction -0.34202 -0.939693 0   
     length 7.3886   
     axis 0 0 -20   XYZ
    dof rx ry rz
    limits (-160.0 20.0)
           (-70.0 70.0)
           (-70.0 60.0)
  end
  begin
     id 8 
     name rtibia
     direction -0.34202 -0.939693 0   
     length 7.4839   
     axis 0 0 -20   XYZ
    dof rx
    limits (-10.0 170.0)
 end
 begin
     id 9 
     name rfoot
     direction -0.114619 -0.314914 0.942174   
     length 2.25127  
     axis -90 -7.62852e-016 -20   XYZ
    dof rx rz
    limits (-45.0 90.0)
           (-20.0 70.0)
  end
  begin
     id 10 
     name rtoes
     direction -1.53518e-011 -4.21881e-011 1   
     length 1.11821   
     axis -90 -7.62852e-016 -20   XYZ
    dof rx
    limits (-90.0 20.0)
  end
  begin
     id 11 
     name lowerback
     direction -0.00902269 0.996426 -0.0839821   
     length 2.25052   
     axis 0 0 0   XYZ
    dof rx ry rz
    limits (-20.0 45.0)
           (-30.0 30.0)
           (-30.0 30.0)
  end
  begin
     id 12 
     name upperback
     direction 0.0370973 0.999169 -0.0168941   
     length 2.24876   
     axis 0 0 0   XYZ
    dof rx ry rz
    limits (-20.0 45.0)
           (-30.0 30.0)
           (-30.0 30.0)
  end
  begin
     id 13 
     name thorax
     direction 0.0402726 0.998931 0.0227027   
     length 2.26408   
     axis 0 0 0   XYZ
    dof rx ry rz
    limits (-20.0 45.0)
           (-30.0 30.0)
           (-30.0 30.0)
  end
  begin
     id 14 
     name lowerneck
     direction -0.0733697 0.98508 0.155675   
     length 1.58204   
     axis 0 0 0   XYZ
    dof rx ry rz
    limits (-20.0 45.0)
           (-30.0 30.0)
           (-30.0 30.0)
  end
  begin
     id 15 
     name upperneck
     direction 0.0426554 0.993501 -0.105526   
     length 1.61222   
     axis 0 0 0   XYZ
    dof rx ry rz
    limits (-20.0 45.0)
           (-30.0 30.0)
           (-30.0 30.0)
  end
  begin
     id 16
     name head
     direction 0.020792 0.998384 -0.0528868  
     length 1.61527  
     axis 0 0 0   XYZ
    dof rx ry rz
    limits (-20.0 45.0)
           (-30.0 30.0)
           (-30.0 30.0)
  end
  begin
     id 17 
     name lclavicle
     direction 0.967109 0.155462 -0.201325  
     length 3.59357  
     axis 0 0 0   XYZ
    dof ry rz
    limits (-20.0 10.0)
           (0.0 20.0)
  end
  begin
     id 18 
     name lhumerus
     direction 1 -4.48968e-011 2.38195e-027   
     length 5.38154   
     axis 180 -30 -90   XYZ
    dof rx ry rz
    limits (-60.0 90.0)
           (-90.0 90.0)
           (-90.0 90.0)
  end
  begin
     id 19
     name lradius
     direction 1 -4.48961e-011 4.85371e-027   
     length 3.33312   
     axis 180 -30 -90   XYZ
    dof rx
    limits (-10.0 170.0)
  end
  begin
     id 20
     name lwrist
     direction 1 -4.48961e-011 4.76515e-027   
     length 1.66656   
     axis -3.27502e-015 90 90   XYZ
    dof ry
    limits (-180.0 0.0)
 end
  begin
     id 21 
     name lhand
     direction 1 -4.48951e-011 9.53074e-027   
     length 0.710789   
     axis -6.08098e-015 90 90   XYZ
    dof rx rz
    limits (-90.0 90.0)
           (-45.0 45.0)
  end
  begin
     id 22 
     name lfingers
     direction 1 -4.48953e-011 1.90613e-026   
     length 0.573057   
     axis -1.21619e-014 90 90   XYZ
    dof rx
    limits (0.0 90.0)
  end
  begin
     id 23
     name lthumb
     direction 0.707107 -6.34973e-011 0.707107   
     length 0.822798   
     axis -90 45 -9.86923e-015   XYZ
    dof rx rz
    limits (-45.0 45.0)
           (-45.0 45.0)
  end
  begin
     id 24 
     name rclavicle
     direction -0.9585 0.265289 -0.104398   
     length 3.42039  
     axis 0 0 0   XYZ 
    dof ry rz
    limits (-10.0 20.0)
           (-20.0 0.0)
  end
  begin
     id 25 
     name rhumerus
     direction -1 -4.48977e-011 2.21478e-027  
     length 5.16954   
     axis 180 30 90   XYZ
    dof rx ry rz
    limits (-90.0 60.0)
           (-90.0 90.0)
           (-90.0 90.0)
  end
  begin
     id 26 
     name rradius
     direction -1 -4.48967e-011 5.63677e-027   
     length 3.38287   
     axis 180 30 90   XYZ
    dof rx
    limits (-10.0 170.0)
  end
  begin
     id 27 
     name rwrist
     direction -1 -4.48967e-011 4.76501e-027   
     length 1.69144   
     axis -3.27502e-015 -90 -90   XYZ
    dof ry
    limits (-180.0 0.0)
  end
  begin
     id 28
     name rhand
     direction -1 -4.48902e-011 9.53292e-027   
     length 0.817967   
     axis -6.08098e-015 -90 -90   XYZ
    dof rx rz
    limits (-90.0 90.0)
           (-45.0 45.0)
  end
  begin
     id 29
     name rfingers
     direction -1 -4.49012e-011 1.90561e-026   
     length 0.659466   
     axis -1.21619e-014 -90 -90   XYZ
    dof rx
    limits (0.0 90.0)
  end
  begin
     id 30
     name rthumb
     direction -0.707107 -6.34944e-011 0.707107   
     length 0.946865   
     axis -90 -45 9.86923e-015   XYZ
    dof rx rz
    limits (-45.0 45.0)
           (-45.0 45.0)
  end
:hierarchy
  begin
    root lhipjoint rhipjoint lowerback
    lhipjoint lfemur
    lfemur ltibia
    ltibia lfoot
    lfoot ltoes
    rhipjoint rfemur
    rfemur rtibia
    rtibia rfoot
    rfoot rtoes
    lowerback upperback
    upperback thorax
    thorax lowerneck lclavicle rclavicle
    lowerneck upperneck
    upperneck head
    lclavicle lhumerus
    lhumerus lradius
    lradius lwrist
    lwrist lhand lthumb
    lhand lfingers
    rclavicle rhumerus
    rhumerus rradius
    rradius rwrist
    rwrist rhand rthumb
    rhand rfingers
  end

#!OML:ASF F:\twosubjects\two\wednesday\Session 1\Justin1.ASF
:FULLY-SPECIFIED
:DEGREES
804
root 9.24926 17.6134 -14.4094 -1.25352 -4.42092 -0.0287664
lowerback 3.09079 0.0718668 -2.70395
upperback -0.904199 0.0677337 3.28484
thorax -2.6753 0.106535 4.91747
lowerneck -21.6995 -0.988922 -7.96932
upperneck 21.842 0.742054 2.20804
head 10.584 -0.062896 2.22531
rclavicle 1.19519e-014 -3.18055e-015
rhumerus 4.31198 4.14704 -44.3653
rradius 114.122
rwrist 7.01913
rhand -22.7781 44.7468
rfingers 7.12502
rthumb 3.65736 14.7985
lclavicle 1.19519e-014 -3.18055e-015
lhumerus -2.2279 -8.35017 55.2311
lradius 115.785
lwrist -22.5482
lhand -9.38702 29.5048
lfingers 7.12502
lthumb 16.5739 58.817
rfemur -0.994257 1.00236 15.1099
rtibia 16.2575
rfoot -10.8991 -8.4868
rtoes -7.72785
lfemur -2.12907 0.290051 -15.5196
ltibia 20.2509
lfoot -14.0396 4.60977
ltoes -13.7
805
root 9.2524 17.6114 -14.4031 -1.17402 -4.57762 -0.141601
lowerback 2.95527 0.112778 -2.45696
upperback -0.84351 0.132261 3.25388
thorax -2.54185 0.130663 4.73975
lowerneck -21.8709 -1.00149 -7.83576
upperneck 21.7202 0.692948 2.21126
head 10.5735 -0.0701544 2.19626
rclavicle -2.68359e-015 9.54166e-015
rhumerus 4.32384 4.14171 -44.2825
rradius 114.102
rwrist 6.77089
rhand -22.9056 45.237
rfingers 7.12502
rthumb 3.53424 15.2866
lclavicle -2.68359e-015 9.54166e-015
lhumerus -2.36837 -8.72125 54.7549
lradius 115.822
lwrist -22.2171
lhand -9.41804 29.9443
lfingers 7.12502
lthumb 16.544 59.2591
rfemur -1.13516 1.05352 15.2027
rtibia 16.3108
rfoot -10.8623 -8.45013
rtoes -7.9926
lfemur -2.20175 0.0795699 -15.4641
ltibia 20.312
lfoot -14.105 4.95416
ltoes -12.8709
806
root 9.23803 17.6103 -14.4215 -1.09276 -4.31054 -0.504583
lowerback 3.13761 0.0021738 -2.19866
upperback -0.850786 -0.00486089 3.32468
thorax -2.63795 0.0604691 4.67486
lowerneck -22.3558 -1.05331 -7.63663
upperneck 21.98 0.620822 2.12913
head 10.7639 -0.102911 2.12947
rclavicle 3.32964e-015 1.59028e-014
rhumerus 4.32058 4.22807 -44.3416
rradius 114.011
rwrist 6.6848
rhand -23.4687 45.7046
rfingers 7.12502
rthumb 2.9905 15.7458
lclavicle 3.32964e-015 1.59028e-014
lhumerus -2.40478 -9.16037 54.3785
lradius 115.659
lwrist -21.9292
lhand -9.33575 30.0904
lfingers 7.12502
lthumb 16.6232 59.3985
rfemur -1.23948 1.06777 15.7103
rtibia 16.4053
rfoot -10.8266 -8.78257
rtoes -7.7676
lfemur -2.4311 0.233539 -14.9317
ltibia 20.3806
lfoot -13.891 4.53092
ltoes -14.1903
807
root 9.23651 17.6075 -14.4092 -1.23822 -4.55255 -0.65878
lowerback 3.11786 0.0627974 -2.00796
upperback -0.700752 0.0824765 3.36748
thorax -2.48001 0.0961467 4.60523
lowerneck -22.8785 -1.15936 -7.58934
upperneck 22.4135 0.550049 1.97321
head 11.0283 -0.162179 2.06271
rclavicle -4.62174e-015 3.97569e-015
rhumerus 4.35344 4.49821 -43.9503
rradius 113.882
rwrist 6.32467
rhand -24.4797 45.7818
rfingers 7.12502
rthumb 2.0141 15.8116
lclavicle -4.62174e-015 3.97569e-015
lhumerus -2.43091 -9.69818 54.0091
lradius 115.439
lwrist -21.3587
lhand -9.19276 30.2351
lfingers 7.12502
lthumb 16.7609 59.5317
rfemur -1.06747 1.26895 15.8817
rtibia 16.3752
rfoot -10.7789 -8.69399
rtoes -7.72704
lfemur -2.21379 0.190426 -14.7956
ltibia 20.4869
lfoot -13.9614 4.84577
ltoes -15.8695
808
root 9.2244 17.6076 -14.4217 -1.19284 -4.33516 -0.404512
lowerback 3.27239 0.00124414 -2.34544
upperback -0.81713 -0.0136832 3.32955
thorax -2.67846 0.0587406 4.76474
lowerneck -23.0112 -1.20811 -7.7634
upperneck 22.5799 0.511442 2.14436
head 11.1163 -0.176827 2.15137
rclavicle -4.17448e-015 4.6118e-014
rhumerus 4.26403 4.95191 -43.4151
rradius 113.838
rwrist 5.41965
rhand -24.8165 45.3672
rfingers 7.12502
rthumb 1.6888 15.3941
lclavicle -4.17448e-015 4.6118e-014
lhumerus -2.75829 -10.2973 53.4365
lradius 115.407
lwrist -20.4645
lhand -8.99667 30.2203
lfingers 7.12502
lthumb 16.9496 59.5007
rfemur -1.0873 1.14567 15.6617
rtibia 16.2669
rfoot -10.7021 -8.76994
rtoes -8.07446
lfemur -2.44046 0.242415 -14.9936
ltibia 20.6289
lfoot -14.0552 4.58971
ltoes -15.92
809
root 9.22685 17.6072 -14.41 -1.25114 -4.42535 -0.50274
lowerback 3.19607 0.00544141 -2.09349
upperback -0.838144 0.00311074 3.317
thorax -2.65839 0.0628315 4.60677
lowerneck -22.495 -1.18663 -8.12098
upperneck 22.5169 0.520199 2.50715
head 10.9925 -0.155926 2.34131
rclavicle -1.50331e-014 3.02153e-014
rhumerus 4.02131 5.4718 -43.0692
rradius 113.895
rwrist 4.56235
rhand -22.8123 43.9463
rfingers 7.12502
rthumb 3.62438 13.9974
lclavicle -1.50331e-014 3.02153e-014
lhumerus -3.14247 -10.8334 52.8043
lradius 115.423
lwrist -19.5961
lhand -8.39695 29.9481
lfingers 7.12502
lthumb 17.5269 59.178
rfemur -0.999321 1.1514 15.7407
rtibia 16.2335
rfoot -10.6816 -8.6979
rtoes -8.17888
lfemur -2.35408 0.0683192 -14.9401
ltibia 20.7046
lfoot -14.1707 4.82298
ltoes -14.5602
810
root 9.21922 17.6063 -14.4086 -1.24483 -4.4143 -0.846814
lowerback 3.13336 -0.0005103 -1.75225
upperback -0.769581 0.0102204 3.3995
thorax -2.55257 0.0586391 4.49748
lowerneck -22.6748 -1.12496 -8.29313
upperneck 22.5605 0.565957 2.94709
head 11.0349 -0.0934759 2.54086
rclavicle -7.42958e-015 -2.38542e-014
rhumerus 3.83353 5.85958 -42.6286
rradius 114.054
rwrist 3.57017
rhand -23.7794 44.3294
rfingers 7.12502
rthumb 2.69039 14.3666
lclavicle -7.42958e-015 -2.38542e-014
lhumerus -3.2055 -11.5359 52.133
lradius 115.277
lwrist -18.8005
lhand -8.36957 29.8273
lfingers 7.12502
lthumb 17.5532 59.0549
rfemur -1.01895 1.28389 16.1711
rtibia 16.3326
rfoot -10.7555 -8.8182
rtoes -7.99838
lfemur -2.34701 0.14788 -14.5123
ltibia 20.7122
lfoot -14.275 4.66292
ltoes -13.0064
811
root 9.21299 17.6041 -14.4078 -1.21813 -4.47079 -0.75254
lowerback 3.04253 0.00248602 -1.89414
upperback -0.646599 0.0069408 3.42643
thorax -2.3745 0.0543653 4.60515
lowerneck -22.7826 -1.15843 -8.75832
upperneck 22.498 0.583463 3.35852
head 11.027 -0.0707534 2.77161
rclavicle 6.06293e-015 -2.38542e-014
rhumerus 3.82667 6.39681 -41.8623
rradius 114.229
rwrist 2.00202
rhand -25.229 45.2433
rfingers 7.12502
rthumb 1.29043 15.2674
lclavicle 6.06293e-015 -2.38542e-014
lhumerus -3.34145 -12.3664 51.2664
lradius 115.098
lwrist -17.8737
lhand -9.05508 30.002
lfingers 7.12502
lthumb 16.8934 59.2873
rfemur -1.09382 1.37202 16.0947
rtibia 16.3955
rfoot -10.7526 -8.85752
rtoes -8.4773
lfemur -2.37181 0.157545 -14.5969
ltibia 20.728
lfoot -14.4022 4.65605
ltoes -12.4119
812
root 9.21237 17.6027 -14.4034 -1.2251 -4.47196 -0.418112
lowerback 3.04742 -0.00663278 -2.19629
upperback -0.634845 -0.0188513 3.35523
thorax -2.36289 0.0448616 4.70404
lowerneck -22.8926 -1.18405 -8.81187
upperneck 22.4576 0.588967 3.3179
head 11.0328 -0.0768727 2.76629
rclavicle -1.19022e-014 6.36111e-015
rhumerus 3.61265 7.28826 -40.9185
rradius 114.35
rwrist 0.22601
rhand -25.644 44.9863
rfingers 7.12502
rthumb 0.88956 15.0084
lclavicle -1.19022e-014 6.36111e-015
lhumerus -3.78551 -13.5236 50.2107
lradius 114.987
lwrist -16.7022
lhand -9.67786 30.1198
lfingers 7.12502
lthumb 16.2938 59.4552
rfemur -1.17319 1.19385 15.6931
rtibia 16.5558
rfoot -10.8098 -8.74719
rtoes -9.21932
lfemur -2.35407 0.0518639 -14.9927
ltibia 20.7335
lfoot -14.5013 4.78834
ltoes -12.569
813
root 9.2125 17.6004 -14.4002 -1.21045 -4.42872 -0.310934
lowerback 3.11916 0.00557385 -2.25358
upperback -0.696084 -0.00520063 3.3142
thorax -2.46781 0.05526 4.69394
lowerneck -22.7673 -1.20769 -8.95535
upperneck 22.361 0.548985 3.48259
head 10.9746 -0.0838537 2.8414
rclavicle -6.90777e-015 0
rhumerus 3.25119 8.34613 -39.8077
rradius 114.526
rwrist -1.63541
rhand -25.708 43.999
rfingers 7.12502
rthumb 0.827799 14.0209
lclavicle -6.90777e-015 0
lhumerus -3.97124 -15.1628 48.922
lradius 114.748
lwrist -15.0564
lhand -10.4631 30.209
lfingers 7.12502
lthumb 15.5377 59.6047
rfemur -1.30851 1.00363 15.5377
rtibia 16.841
rfoot -11.0758 -8.56159
rtoes -9.23341
lfemur -2.32686 0.00502159 -15.1247
ltibia 20.6681
lfoot -14.528 4.81647
ltoes -11.8003
814
root 9.20615 17.5971 -14.4092 -1.15948 -4.20869 -0.283398
lowerback 3.27788 -0.0501693 -2.2843
upperback -0.749119 -0.0817477 3.29502
thorax -2.60439 0.020825 4.69694
lowerneck -22.737 -1.2547 -9.15578
upperneck 22.192 0.494109 3.6925
head 10.9083 -0.0944726 2.93933
rclavicle 2.48481e-015 -1.82882e-014
rhumerus 2.94859 9.66719 -38.4957
rradius 114.733
rwrist -3.71646
rhand -25.8014 43.3708
rfingers 7.12502
rthumb 0.737543 13.3924
lclavicle 2.48481e-015 -1.82882e-014
lhumerus -3.88316 -17.0398 47.4393
lradius 114.431
lwrist -12.8424
lhand -11.281 30.4635
lfingers 7.12502
lthumb 14.7498 59.9187
rfemur -1.45959 0.892003 15.5381
rtibia 17.0982
rfoot -11.3159 -8.60839
rtoes -8.84083
lfemur -2.44394 0.166928 -15.0734
ltibia 20.6419
lfoot -14.4425 4.44183
ltoes -11.4538
815
root 9.20832 17.5919 -14.3974 -1.13779 -4.43362 -0.164617
lowerback 3.1875 0.0354993 -2.27202
upperback -0.74517 0.0320257 3.21756
thorax -2.5604 0.0760104 4.60215
lowerneck -22.8298 -1.28522 -8.93338
upperneck 22.1558 0.462795 3.39224
head 10.9171 -0.127111 2.78716
rclavicle -6.53505e-015 1.90833e-014
rhumerus 2.60325 11.3808 -36.8383
rradius 114.913
rwrist -6.38253
rhand -25.3506 42.6878
rfingers 7.12502
rthumb 1.17293 12.7113
lclavicle -6.53505e-015 1.90833e-014
lhumerus -4.01062 -19.2613 45.6356
lradius 114.324
lwrist -10.0052
lhand -12.1771 30.6449
lfingers 7.12502
lthumb 13.8863 60.1613
rfemur -1.58555 1.02857 15.3779
rtibia 17.2533
rfoot -11.3329 -8.51384
rtoes -8.94304
lfemur -2.41908 0.146299 -15.2496
ltibia 20.7201
lfoot -14.656 4.70643
ltoes -11.929
816
root 9.20003 17.5887 -14.3918 -1.01974 -4.57682 -0.288421
lowerback 3.11889 0.0844439 -2.19553
upperback -0.817476 0.10345 3.26947
thorax -2.60333 0.112932 4.60919
lowerneck -22.9452 -1.28319 -8.54725
upperneck 22.3024 0.469418 2.91416
head 10.9969 -0.156483 2.55226
rclavicle -4.96962e-016 -8.74653e-015
rhumerus 2.29456 13.4498 -34.8435
rradius 115.188
rwrist -9.43487
rhand -24.3677 41.3193
rfingers 7.12502
rthumb 2.12228 11.3501
lclavicle -4.96962e-016 -8.74653e-015
lhumerus -4.26107 -21.8668 43.3996
lradius 114.555
lwrist -6.37826
lhand -13.3481 31.1178
lfingers 7.12502
lthumb 12.7577 60.7081
rfemur -1.76644 1.17166 15.5557
rtibia 17.353
rfoot -11.3534 -8.4749
rtoes -9.05907
lfemur -2.57194 0.273584 -15.0708
ltibia 20.8868
lfoot -14.8661 4.71624
ltoes -12.1049
817
root 9.19572 17.59 -14.3873 -0.970043 -4.59741 -0.403772
lowerback 3.13964 0.0729273 -2.03032
upperback -0.872236 0.0957839 3.27602
thorax -2.67031 0.10854 4.52285
lowerneck -22.7912 -1.36277 -8.58133
upperneck 22.3242 0.356399 2.90615
head 10.9841 -0.212988 2.53657
rclavicle -4.12478e-015 -2.78299e-014
rhumerus 1.95804 15.8714 -32.7094
rradius 115.605
rwrist -12.3404
rhand -24.1532 40.5763
rfingers 7.12502
rthumb 2.32938 10.6093
lclavicle -4.12478e-015 -2.78299e-014
lhumerus -4.4383 -24.729 41.1248
lradius 114.991
lwrist -2.56486
lhand -14.3032 32.1579
lfingers 7.12502
lthumb 11.8367 61.8033
rfemur -1.82799 1.16393 15.7059
rtibia 17.4013
rfoot -11.368 -8.4389
rtoes -9.02296
lfemur -2.70407 0.239912 -14.9343
ltibia 21.0578
lfoot -14.7605 4.76193
ltoes -12.1979
818
root 9.1878 17.5898 -14.3965 -0.95366 -4.41458 -0.59626
lowerback 3.30169 0.00128052 -1.8995
upperback -0.877323 0.00748715 3.37204
thorax -2.75858 0.064664 4.55465
lowerneck -22.698 -1.45145 -8.90522
upperneck 22.285 0.293474 3.06865
head 10.9563 -0.248021 2.63846
rclavicle -5.04416e-015 2.62396e-014
rhumerus 1.97167 18.4631 -30.0557
rradius 115.954
rwrist -15.2368
rhand -24.5838 40.6712
rfingers 7.12502
rthumb 1.9135 10.7001
lclavicle -5.04416e-015 2.62396e-014
lhumerus -4.39648 -27.5843 38.8753
lradius 115.267
lwrist 1.03256
lhand -14.9728 32.7786
lfingers 7.12502
lthumb 11.191 62.4601
rfemur -1.85217 1.06848 15.9758
rtibia 17.4852
rfoot -11.4152 -8.59475
rtoes -9.0254
lfemur -2.87559 0.178694 -14.6668
ltibia 21.2349
lfoot -14.6571 4.58133
ltoes -12.1433
